<?xml version="1.0" encoding="utf-8"?>
<!-- Generator: Adobe Illustrator 26.5.1, SVG Export Plug-In . SVG Version: 6.00 Build 0)  -->
<svg version="1.1" id="Layer_1" xmlns="http://www.w3.org/2000/svg" xmlns:xlink="http://www.w3.org/1999/xlink" x="0px" y="0px"
	 viewBox="0 0 1200 1200" style="enable-background:new 0 0 1200 1200;" xml:space="preserve">
<style type="text/css">
	.st0{clip-path:url(#SVGID_00000003787907095029701520000014774238462276855682_);}
	.st1{clip-path:url(#SVGID_00000103978252886877850000000011298080369165682340_);fill:#A8070B;}
</style>
<g id="Artwork_2_00000100378441379506325290000012114276465686011313_">
	<g>
		<defs>
			<rect id="SVGID_1_" x="225" y="353" width="790" height="470"/>
		</defs>
		<clipPath id="SVGID_00000162344857720921626550000004158210149024025478_">
			<use xlink:href="#SVGID_1_"  style="overflow:visible;"/>
		</clipPath>
		<g style="clip-path:url(#SVGID_00000162344857720921626550000004158210149024025478_);">
			<defs>
				<rect id="SVGID_00000021078510066306237300000017562785492078841522_" x="225" y="353" width="790" height="470"/>
			</defs>
			<clipPath id="SVGID_00000016068855703068781980000017473641592201738629_">
				<use xlink:href="#SVGID_00000021078510066306237300000017562785492078841522_"  style="overflow:visible;"/>
			</clipPath>
			<path style="clip-path:url(#SVGID_00000016068855703068781980000017473641592201738629_);fill:#A8070B;" d="M825.76,615.95
				c0.28-3.58,0.43-7.15,0.43-10.7c0-67.11-45.94-121.78-102.37-121.78c-19.3,0-37.79,6.36-53.81,18.25
				c-9.94-69.31-63.33-121.2-125.85-117.1c-59.49,3.52-106.59,55.29-114.31,121.74c-15.87-6.7-32.49-8.55-49.29-5.27
				c-43.01,8.4-76.31,49.58-84.04,100.62c-1.97,12.99-2.46,17.32-1.98,23.99c-28.61,9.27-69.64,28.95-69.54,98.49
				c0.02,51.68,36.15,96.04,85.3,98.81l514.05-2.86c37.93-15.01,66.42-61.66,64.28-112.1C886.85,665.03,861.61,628.78,825.76,615.95
				"/>
			<path style="clip-path:url(#SVGID_00000016068855703068781980000017473641592201738629_);fill:#A8070B;" d="M431.4,803.62
				l-0.13,0c-50.51-2.85-90.09-48.89-90.11-104.81c-0.1-69.24,38.42-92.22,69.37-102.99c0.04-70.43,48.22-127.71,107.42-127.71
				c9.8,0,19.55,1.68,29.07,4.99c10.56-66.45,59.29-116.39,118.09-119.87c2.39-0.15,4.78-0.23,7.17-0.23
				c59.18,0,109.58,47.43,122.5,113.95c15.38-9.76,32.61-14.88,50.24-14.88c59.24,0,107.42,57.33,107.42,127.79
				c0,2.12-0.05,4.27-0.14,6.43c36.35,14.9,60.76,52.13,62.58,96.06c2.21,52.03-26.27,101.7-67.73,118.11l-0.76,0.3l-0.81,0
				L431.4,803.62z M517.95,481.87c-53.67,0-97.33,51.95-97.33,115.8c0,1.26,0.05,2.52,0.15,3.88l0.35,4.98l-4.05,1.32
				c-30.69,9.94-65.91,29.46-65.82,92.68c0.02,49.47,35.31,90.2,80.36,92.82l513.1-2.85c36.24-14.81,62.02-60.12,60.08-105.8
				c-1.68-40.34-24.95-74.35-59.29-86.64l-3.96-1.42l0.39-4.9c0.27-3.41,0.4-6.82,0.4-10.14c0-63.84-43.65-115.78-97.32-115.78
				c-18.16,0-35.85,6-51.13,17.35l-6.39,4.74l-1.26-8.83c-9.69-67.61-61.07-115.95-120.59-112.11
				c-56.05,3.31-102.13,52.34-109.59,116.56l-0.85,7.31l-5.84-2.47C539.14,484.06,528.57,481.87,517.95,481.87"/>
		</g>
	</g>
</g>
</svg>
