<?xml version="1.0" encoding="utf-8"?>
<!-- Generator: Adobe Illustrator 26.5.1, SVG Export Plug-In . SVG Version: 6.00 Build 0)  -->
<svg version="1.1" id="Layer_1" xmlns="http://www.w3.org/2000/svg" xmlns:xlink="http://www.w3.org/1999/xlink" x="0px" y="0px"
	 viewBox="0 0 1200 1200" style="enable-background:new 0 0 1200 1200;" xml:space="preserve">
<style type="text/css">
	.st0{clip-path:url(#SVGID_00000123404698589734829750000006668022950580913280_);}
	.st1{clip-path:url(#SVGID_00000067214405929918852930000000918693078166639018_);fill:#A8070B;}
</style>
<g id="Artwork_10_00000093169514850504807300000005277971826600837290_">
	<g>
		<defs>
			<rect id="SVGID_1_" x="264.1" y="350.42" width="671.79" height="474.58"/>
		</defs>
		<clipPath id="SVGID_00000077286500563950363620000011003381697161922472_">
			<use xlink:href="#SVGID_1_"  style="overflow:visible;"/>
		</clipPath>
		<g style="clip-path:url(#SVGID_00000077286500563950363620000011003381697161922472_);">
			<defs>
				<rect id="SVGID_00000140016479234961972290000007207961980492678589_" x="264.1" y="350.42" width="671.79" height="474.58"/>
			</defs>
			<clipPath id="SVGID_00000163791564912430973450000007203212770975446943_">
				<use xlink:href="#SVGID_00000140016479234961972290000007207961980492678589_"  style="overflow:visible;"/>
			</clipPath>
			<path style="clip-path:url(#SVGID_00000163791564912430973450000007203212770975446943_);fill:#A8070B;" d="M855.5,645.54
				c61.9-25.9,95-97.56,74.16-164.7c-19.85-64.1-81.89-101.58-143.84-90.39c24.22,16.1,43.4,40.72,52.92,71.42
				c11.36,36.7,6.55,74.75-10.17,105.95c-18.47-22.58-45.92-36.97-76.59-36.97c-18.66,0-36.54,5.24-52.08,15.12
				c-10.2-59.05-61.75-103.1-123.41-99.62c-58.13,3-104.23,47.1-112.15,103.8c-10.34-3.75-20.97-5.65-31.79-5.65
				c-55.5,0-100.66,47-100.66,104.79c0,1.07,0.02,2.14,0.13,3.27c-28.08,7.99-67.97,25.06-67.93,84.7
				c0.08,47.41,40.49,85.96,90.07,85.96l4.77-0.12c30.93-1.54,158.81,0.12,158.85,0.12l0.01-2.22c0.24,0.06,0.46,0.09,0.68,0.12
				l0.13,2.07l-0.06-2.07c16.99,2.42,56.38,2.48,147.99,2.65c0,0,68.78,1.23,118.74,1.23c18.9,0,35.14-0.17,44.12-0.68
				c47.33-2.44,86.68-49.61,84.25-100.94C911.94,687.68,888.68,657.59,855.5,645.54"/>
			<polygon style="clip-path:url(#SVGID_00000163791564912430973450000007203212770975446943_);fill:#A8070B;" points="
				722.3,472.05 740.63,460.01 760.63,468.84 755.25,446.99 769.54,429.92 747.88,428.47 736.72,409.1 728.73,430.1 707.54,435.14 
				724.25,449.55 			"/>
			<polygon style="clip-path:url(#SVGID_00000163791564912430973450000007203212770975446943_);fill:#A8070B;" points="
				655.19,403.22 670.55,393.09 687.28,400.52 682.8,382.17 694.78,367.87 676.62,366.66 667.25,350.42 660.54,368.05 
				642.78,372.23 656.8,384.35 			"/>
		</g>
	</g>
</g>
</svg>
