<?xml version="1.0" encoding="utf-8"?>
<!-- Generator: Adobe Illustrator 26.5.1, SVG Export Plug-In . SVG Version: 6.00 Build 0)  -->
<svg version="1.1" id="Layer_1" xmlns="http://www.w3.org/2000/svg" xmlns:xlink="http://www.w3.org/1999/xlink" x="0px" y="0px"
	 viewBox="0 0 1200 1200" style="enable-background:new 0 0 1200 1200;" xml:space="preserve">
<style type="text/css">
	.st0{clip-path:url(#SVGID_00000175313365697812284310000006220205473401136538_);}
	.st1{clip-path:url(#SVGID_00000092437709299442340840000001013185668363432637_);fill:#A8070B;}
</style>
<g id="Artwork_7_00000091017408215507431520000017564129821232427924_">
	<g>
		<defs>
			<rect id="SVGID_1_" x="229" y="301" width="776" height="748"/>
		</defs>
		<clipPath id="SVGID_00000051359859009969043200000006237317796225647804_">
			<use xlink:href="#SVGID_1_"  style="overflow:visible;"/>
		</clipPath>
		<g style="clip-path:url(#SVGID_00000051359859009969043200000006237317796225647804_);">
			<defs>
				<rect id="SVGID_00000141450436604428300720000014716815151046169491_" x="229" y="301" width="776" height="748"/>
			</defs>
			<clipPath id="SVGID_00000012432835009640549700000012694659823923196580_">
				<use xlink:href="#SVGID_00000141450436604428300720000014716815151046169491_"  style="overflow:visible;"/>
			</clipPath>
			<path style="clip-path:url(#SVGID_00000012432835009640549700000012694659823923196580_);fill:#A8070B;" d="M931.36,534.53
				c0.33-3.61,0.5-7.21,0.5-10.79c0-67.69-53.72-122.83-119.69-122.83c-22.56,0-44.18,6.42-62.91,18.41
				c-11.61-69.9-74.04-122.23-147.13-118.1c-69.56,3.55-124.62,55.76-133.65,122.78c-12.57-4.58-25.54-6.91-38.71-6.91
				c-65.98,0-119.69,55.11-119.69,122.85c0,1.44,0.07,2.87,0.2,4.42c-33.44,9.35-81.42,29.19-81.29,99.34
				c0.03,52.12,42.26,96.87,99.72,99.66l600.99-2.88c44.34-15.14,77.65-62.2,75.15-113.07
				C1002.78,584.04,973.27,547.48,931.36,534.53"/>
			<path style="clip-path:url(#SVGID_00000012432835009640549700000012694659823923196580_);fill:#A8070B;" d="M477.89,854.56h0.05
				c-46.19-63.52-43.14-172.95-45.35-137.9c-5.77,91.47-40.88,137.9-40.88,137.9c-2.93,5.71-4.63,12.01-4.63,18.72
				c0,24.23,21.36,43.87,47.71,43.87c26.36,0,47.71-19.64,47.71-43.87C482.52,866.57,480.81,860.27,477.89,854.56"/>
			<path style="clip-path:url(#SVGID_00000012432835009640549700000012694659823923196580_);fill:#A8070B;" d="M624.63,768.37h0.01
				c-40.32-55.47-37.62-150.99-39.58-120.41c-5.05,79.88-35.7,120.41-35.7,120.41c-2.57,4.99-4.02,10.47-4.02,16.36
				c0,21.15,18.65,38.28,41.67,38.28c22.97,0,41.64-17.14,41.64-38.28C628.67,778.84,627.19,773.36,624.63,768.37"/>
			<path style="clip-path:url(#SVGID_00000012432835009640549700000012694659823923196580_);fill:#A8070B;" d="M582.88,974.3h0.05
				c-31.37-43.09-29.28-117.31-30.78-93.54c-3.92,62.01-27.74,93.54-27.74,93.54c-1.97,3.88-3.12,8.17-3.12,12.69
				c0,16.42,14.48,29.75,32.35,29.75c17.88,0,32.39-13.33,32.39-29.75C586.04,982.47,584.88,978.18,582.88,974.3"/>
			<path style="clip-path:url(#SVGID_00000012432835009640549700000012694659823923196580_);fill:#A8070B;" d="M504.19,662.69h0.02
				c-23.22-31.94-21.67-86.97-22.78-69.37c-2.93,46.02-20.57,69.37-20.57,69.37c-1.48,2.86-2.32,6.04-2.32,9.42
				c0,12.19,10.75,22.06,24,22.06c13.24,0,23.98-9.87,23.98-22.06C506.52,668.74,505.67,665.56,504.19,662.69"/>
			<path style="clip-path:url(#SVGID_00000012432835009640549700000012694659823923196580_);fill:#A8070B;" d="M751.68,709.87
				c0,17.87-14.1,32.3-31.46,32.3c-17.38,0-31.43-14.43-31.43-32.3c0-17.83,14.06-32.24,31.43-32.24
				C737.58,677.63,751.68,692.04,751.68,709.87"/>
			<path style="clip-path:url(#SVGID_00000012432835009640549700000012694659823923196580_);fill:#A8070B;" d="M887.51,808.13
				c0,17.88-14.11,32.3-31.45,32.3c-17.35,0-31.4-14.42-31.4-32.3c0-17.81,14.05-32.23,31.4-32.23
				C873.4,775.9,887.51,790.32,887.51,808.13"/>
			<path style="clip-path:url(#SVGID_00000012432835009640549700000012694659823923196580_);fill:#A8070B;" d="M770.16,1016.73
				c0,17.84-14.07,32.27-31.45,32.27c-17.36,0-31.4-14.43-31.4-32.27c0-17.84,14.04-32.27,31.4-32.27
				C756.09,984.46,770.16,998.89,770.16,1016.73"/>
			<path style="clip-path:url(#SVGID_00000012432835009640549700000012694659823923196580_);fill:#A8070B;" d="M869.91,697.45
				c0,12.88-10.14,23.28-22.65,23.28c-12.54,0-22.64-10.4-22.64-23.28c0-12.84,10.1-23.22,22.64-23.22
				C859.78,674.23,869.91,684.62,869.91,697.45"/>
			<path style="clip-path:url(#SVGID_00000012432835009640549700000012694659823923196580_);fill:#A8070B;" d="M773.6,852.73
				c0,16.27-12.86,29.43-28.64,29.43c-15.83,0-28.62-13.16-28.62-29.43c0-16.23,12.79-29.37,28.62-29.37
				C760.75,823.37,773.6,836.5,773.6,852.73"/>
			<path style="clip-path:url(#SVGID_00000012432835009640549700000012694659823923196580_);fill:#A8070B;" d="M884.7,946.42
				c0,16.26-12.85,29.41-28.65,29.41c-15.83,0-28.61-13.15-28.61-29.41c0-16.21,12.77-29.36,28.61-29.36
				C871.85,917.06,884.7,930.21,884.7,946.42"/>
		</g>
	</g>
</g>
</svg>
