<?xml version="1.0" encoding="utf-8"?>
<!-- Generator: Adobe Illustrator 26.5.1, SVG Export Plug-In . SVG Version: 6.00 Build 0)  -->
<svg version="1.1" id="Layer_1" xmlns="http://www.w3.org/2000/svg" xmlns:xlink="http://www.w3.org/1999/xlink" x="0px" y="0px"
	 viewBox="0 0 1200 1200" style="enable-background:new 0 0 1200 1200;" xml:space="preserve">
<style type="text/css">
	.st0{clip-path:url(#SVGID_00000041267167841141598710000013363015892931003815_);}
	.st1{clip-path:url(#SVGID_00000159468971192656036840000012914945523706887300_);fill:#A8070B;}
</style>
<g id="Artwork_4_00000018937964437453071850000003405954477070199989_">
	<g>
		<defs>
			<rect id="SVGID_1_" x="254" y="261" width="692" height="718"/>
		</defs>
		<clipPath id="SVGID_00000168078979780585561100000015276303003691091112_">
			<use xlink:href="#SVGID_1_"  style="overflow:visible;"/>
		</clipPath>
		<g style="clip-path:url(#SVGID_00000168078979780585561100000015276303003691091112_);">
			<defs>
				<rect id="SVGID_00000102526885148703909590000018344775690400618902_" x="254" y="261" width="692" height="718"/>
			</defs>
			<clipPath id="SVGID_00000020365868211027321690000014449504154012510594_">
				<use xlink:href="#SVGID_00000102526885148703909590000018344775690400618902_"  style="overflow:visible;"/>
			</clipPath>
			<path style="clip-path:url(#SVGID_00000020365868211027321690000014449504154012510594_);fill:#A8070B;" d="M880.33,470.63
				c0.3-3.24,0.44-6.47,0.44-9.69c0-60.76-47.9-110.25-106.73-110.25c-20.12,0-39.39,5.76-56.1,16.53
				c-10.36-62.74-66.02-109.72-131.2-106.01c-62.02,3.18-111.13,50.05-119.18,110.21c-11.21-4.11-22.78-6.2-34.52-6.2
				c-58.84,0-106.73,49.47-106.73,110.27c0,1.3,0.06,2.58,0.18,3.97c-29.82,8.39-72.6,26.21-72.5,89.17
				c0.02,46.79,37.69,86.95,88.93,89.46l535.93-2.58c39.55-13.59,69.25-55.83,67.02-101.49
				C944.02,515.07,917.7,482.25,880.33,470.63"/>
			<polygon style="clip-path:url(#SVGID_00000020365868211027321690000014449504154012510594_);fill:#A8070B;" points="397.04,979 
				400.67,973.19 528.11,770.11 404.31,769.89 509.7,596.01 519.9,596.01 448.54,747.36 581.42,748.04 			"/>
			<polygon style="clip-path:url(#SVGID_00000020365868211027321690000014449504154012510594_);fill:#A8070B;" points="
				593.65,898.67 596.9,893.47 711.16,711.41 600.18,711.21 694.66,555.33 703.79,555.33 639.8,691.02 758.98,691.63 			"/>
		</g>
	</g>
</g>
</svg>
