<?xml version="1.0" encoding="utf-8"?>
<!-- Generator: Adobe Illustrator 26.5.1, SVG Export Plug-In . SVG Version: 6.00 Build 0)  -->
<svg version="1.1" id="Layer_1" xmlns="http://www.w3.org/2000/svg" xmlns:xlink="http://www.w3.org/1999/xlink" x="0px" y="0px"
	 viewBox="0 0 1200 1200" style="enable-background:new 0 0 1200 1200;" xml:space="preserve">
<style type="text/css">
	.st0{clip-path:url(#SVGID_00000131359353277226450700000006873501039745001867_);}
	.st1{clip-path:url(#SVGID_00000166635973505204805170000014331326558940416151_);fill:#A8070B;}
</style>
<g id="Artwork_6_00000082344017937773558040000012668257756973572481_">
	<g>
		<defs>
			<rect id="SVGID_1_" x="185" y="344" width="780" height="512"/>
		</defs>
		<clipPath id="SVGID_00000078737883554495717020000001848331069540112269_">
			<use xlink:href="#SVGID_1_"  style="overflow:visible;"/>
		</clipPath>
		<g style="clip-path:url(#SVGID_00000078737883554495717020000001848331069540112269_);">
			<defs>
				<rect id="SVGID_00000181802626980771266850000002765140263513070271_" x="185" y="344" width="780" height="512"/>
			</defs>
			<clipPath id="SVGID_00000102543215818660584900000011716649581499258249_">
				<use xlink:href="#SVGID_00000181802626980771266850000002765140263513070271_"  style="overflow:visible;"/>
			</clipPath>
			<path style="clip-path:url(#SVGID_00000102543215818660584900000011716649581499258249_);fill:#A8070B;" d="M795.36,537.42
				c-35.52,0-64.41-28.5-64.41-63.53s28.89-63.52,64.41-63.52c35.53,0,64.42,28.49,64.42,63.52S830.89,537.42,795.36,537.42
				 M795.36,421.46c-29.32,0-53.17,23.52-53.17,52.44c0,28.92,23.85,52.44,53.17,52.44c29.34,0,53.18-23.52,53.18-52.44
				C848.54,444.98,824.7,421.46,795.36,421.46"/>
			<path style="clip-path:url(#SVGID_00000102543215818660584900000011716649581499258249_);fill:#A8070B;" d="M745.21,418.54
				c1.62,1.84,1.45,4.62-0.41,6.23c-1.88,1.62-4.7,1.42-6.31-0.41l-33.31-37.52c-1.63-1.85-1.43-4.63,0.42-6.22
				c1.86-1.61,4.7-1.44,6.32,0.41L745.21,418.54z"/>
			<path style="clip-path:url(#SVGID_00000102543215818660584900000011716649581499258249_);fill:#A8070B;" d="M800.02,398.25
				c0.03,2.43-1.97,4.42-4.44,4.44c-2.48,0.01-4.48-1.93-4.51-4.39l-0.36-49.85c-0.02-2.45,1.98-4.43,4.43-4.45
				c2.48-0.01,4.48,1.93,4.52,4.39L800.02,398.25z"/>
			<path style="clip-path:url(#SVGID_00000102543215818660584900000011716649581499258249_);fill:#A8070B;" d="M718.88,461.78
				c2.48,0.2,4.29,2.34,4.1,4.75c-0.21,2.43-2.35,4.23-4.83,4.05l-50.39-4.05c-2.47-0.21-4.32-2.34-4.09-4.75
				c0.19-2.43,2.34-4.23,4.82-4.06L718.88,461.78z"/>
			<path style="clip-path:url(#SVGID_00000102543215818660584900000011716649581499258249_);fill:#A8070B;" d="M727,509.01
				c2.1-1.31,4.86-0.69,6.18,1.37c1.32,2.05,0.71,4.79-1.39,6.1l-42.74,26.64c-2.1,1.31-4.86,0.69-6.17-1.36
				c-1.33-2.06-0.7-4.79,1.39-6.09L727,509.01z"/>
			<path style="clip-path:url(#SVGID_00000102543215818660584900000011716649581499258249_);fill:#A8070B;" d="M765.18,541.87
				c0.89-2.29,3.46-3.44,5.77-2.58c2.3,0.86,3.48,3.39,2.62,5.69l-17.82,46.66c-0.89,2.28-3.45,3.43-5.75,2.57
				c-2.35-0.86-3.5-3.4-2.63-5.69L765.18,541.87z"/>
			<path style="clip-path:url(#SVGID_00000102543215818660584900000011716649581499258249_);fill:#A8070B;" d="M861.75,518.35
				c-2.2-1.14-3.03-3.8-1.88-5.95c1.14-2.16,3.85-3,6.05-1.85l44.74,23.2c2.2,1.15,3.03,3.82,1.88,5.95
				c-1.15,2.18-3.85,2.99-6.06,1.87L861.75,518.35z"/>
			<path style="clip-path:url(#SVGID_00000102543215818660584900000011716649581499258249_);fill:#A8070B;" d="M871.99,464.55
				c-2.45,0.28-4.67-1.45-4.96-3.86c-0.3-2.42,1.46-4.63,3.92-4.91l50.22-5.79c2.47-0.28,4.7,1.45,4.96,3.86
				c0.3,2.44-1.45,4.62-3.92,4.92L871.99,464.55z"/>
			<path style="clip-path:url(#SVGID_00000102543215818660584900000011716649581499258249_);fill:#A8070B;" d="M839.04,588.79
				c0.84,2.3-0.38,4.83-2.72,5.65c-2.34,0.79-4.89-0.39-5.71-2.7L813.8,544.7c-0.82-2.29,0.41-4.82,2.73-5.62
				c2.33-0.82,4.89,0.38,5.71,2.69L839.04,588.79z"/>
			<path style="clip-path:url(#SVGID_00000102543215818660584900000011716649581499258249_);fill:#A8070B;" d="M847.32,419.77
				c-1.54,1.93-4.32,2.27-6.29,0.78c-1.95-1.51-2.29-4.27-0.77-6.19l31.14-39.31c1.52-1.92,4.33-2.28,6.27-0.77
				c1.95,1.49,2.29,4.27,0.76,6.21L847.32,419.77z"/>
			<path style="clip-path:url(#SVGID_00000102543215818660584900000011716649581499258249_);fill:#A8070B;" d="M890.98,654.33
				c0.33-3.49,0.5-6.96,0.5-10.42c0-65.37-53.99-118.62-120.31-118.62c-22.68,0-44.4,6.2-63.23,17.78
				c-11.67-67.5-74.42-118.04-147.89-114.05c-69.91,3.43-125.27,53.85-134.33,118.57c-12.64-4.42-25.67-6.67-38.91-6.67
				c-66.32,0-120.31,53.22-120.31,118.64c0,1.39,0.07,2.77,0.2,4.27c-33.62,9.03-81.84,28.19-81.72,95.93
				c0.03,50.34,42.48,93.55,100.24,96.24l604.09-2.78c44.58-14.62,78.06-60.06,75.54-109.19
				C962.76,702.14,933.11,666.84,890.98,654.33"/>
		</g>
	</g>
</g>
</svg>
