<?xml version="1.0" encoding="utf-8"?>
<!-- Generator: Adobe Illustrator 26.5.1, SVG Export Plug-In . SVG Version: 6.00 Build 0)  -->
<svg version="1.1" id="Layer_1" xmlns="http://www.w3.org/2000/svg" xmlns:xlink="http://www.w3.org/1999/xlink" x="0px" y="0px"
	 viewBox="0 0 1200 1200" style="enable-background:new 0 0 1200 1200;" xml:space="preserve">
<style type="text/css">
	.st0{clip-path:url(#SVGID_00000128459421222679257880000017394024656754985652_);}
	.st1{clip-path:url(#SVGID_00000088093978248368717830000008506631445696132283_);fill:#A8070B;}
</style>
<g id="Artwork_12_00000005257509446988139900000004736562920405527195_">
	<g>
		<defs>
			<rect id="SVGID_1_" x="173" y="207" width="762" height="762"/>
		</defs>
		<clipPath id="SVGID_00000049199188145741183950000006605155296996345009_">
			<use xlink:href="#SVGID_1_"  style="overflow:visible;"/>
		</clipPath>
		<g style="clip-path:url(#SVGID_00000049199188145741183950000006605155296996345009_);">
			<defs>
				<rect id="SVGID_00000176005289826184560870000004897419202980341920_" x="173" y="207" width="762" height="762"/>
			</defs>
			<clipPath id="SVGID_00000041296574523990625680000005270920448456904095_">
				<use xlink:href="#SVGID_00000176005289826184560870000004897419202980341920_"  style="overflow:visible;"/>
			</clipPath>
			<path style="clip-path:url(#SVGID_00000041296574523990625680000005270920448456904095_);fill:#A8070B;" d="M384.86,850.42
				c-24.54-32.65-22.89-88.98-24.05-70.95c-3.06,47.09-21.7,70.95-21.7,70.95c-1.55,2.96-2.45,6.22-2.45,9.67
				c0,12.44,11.34,22.56,25.31,22.56c13.98,0,25.32-10.11,25.32-22.56c0-3.44-0.9-6.71-2.47-9.67H384.86z"/>
			<path style="clip-path:url(#SVGID_00000041296574523990625680000005270920448456904095_);fill:#A8070B;" d="M551.26,850.42
				c-24.54-32.65-22.89-88.98-24.05-70.95c-3.06,47.09-21.69,70.95-21.69,70.95c-1.56,2.96-2.45,6.22-2.45,9.67
				c0,12.44,11.34,22.56,25.31,22.56c13.98,0,25.32-10.11,25.32-22.56c0-3.44-0.9-6.71-2.47-9.67H551.26z"/>
			<path style="clip-path:url(#SVGID_00000041296574523990625680000005270920448456904095_);fill:#A8070B;" d="M791.87,735.69
				c-30.67-40.9-28.62-111.36-30.09-88.81c-3.84,58.92-27.14,88.81-27.14,88.81c-1.94,3.69-3.08,7.73-3.08,12.06
				c0,15.57,14.18,28.23,31.68,28.23c17.5,0,31.66-12.66,31.66-28.23c0-4.33-1.12-8.38-3.09-12.06H791.87z"/>
			<path style="clip-path:url(#SVGID_00000041296574523990625680000005270920448456904095_);fill:#A8070B;" d="M322.17,724.63
				c-26.79-35.72-25-97.22-26.29-77.53c-3.34,51.42-23.68,77.53-23.68,77.53c-1.71,3.2-2.69,6.75-2.69,10.54
				c0,13.62,12.39,24.64,27.67,24.64c15.25,0,27.64-11.02,27.64-24.64c0-3.79-0.98-7.33-2.69-10.54H322.17z"/>
			<path style="clip-path:url(#SVGID_00000041296574523990625680000005270920448456904095_);fill:#A8070B;" d="M491.74,644.34
				c-1.94,29.63-13.66,44.67-13.66,44.67c-0.98,1.84-1.53,3.89-1.53,6.05c0,7.85,7.13,14.2,15.93,14.2c8.78,0,15.91-6.35,15.91-14.2
				c0-2.16-0.55-4.21-1.53-6.05C491.43,668.43,492.48,632.98,491.74,644.34"/>
			<path style="clip-path:url(#SVGID_00000041296574523990625680000005270920448456904095_);fill:#A8070B;" d="M862.69,429.47
				c0.33-3.44,0.49-6.87,0.49-10.28c0-64.48-52.75-117.01-117.53-117.01c-22.16,0-43.38,6.11-61.77,17.54
				c-11.41-66.59-72.71-116.44-144.48-112.51c-68.3,3.38-122.38,53.12-131.23,116.96c-12.35-4.37-25.08-6.59-38.01-6.59
				c-64.8,0-117.53,52.5-117.53,117.03c0,1.37,0.07,2.73,0.19,4.22c-32.84,8.9-79.94,27.8-79.83,94.63
				c0.03,49.65,41.5,92.28,97.93,94.94l590.15-2.74c43.54-14.42,76.25-59.25,73.79-107.71
				C932.82,476.63,903.85,441.81,862.69,429.47"/>
			<polygon style="clip-path:url(#SVGID_00000041296574523990625680000005270920448456904095_);fill:#A8070B;" points="330.51,969 
				334.51,962.83 474.83,747.31 338.51,747.07 454.57,562.54 465.8,562.54 387.22,723.16 533.54,723.89 			"/>
			<polygon style="clip-path:url(#SVGID_00000041296574523990625680000005270920448456904095_);fill:#A8070B;" points="
				547.01,883.75 550.59,878.22 676.41,685 554.2,684.8 658.24,519.36 668.29,519.36 597.83,663.37 729.07,664.02 			"/>
		</g>
	</g>
</g>
</svg>
