<?xml version="1.0" encoding="utf-8"?>
<!-- Generator: Adobe Illustrator 26.5.1, SVG Export Plug-In . SVG Version: 6.00 Build 0)  -->
<svg version="1.1" id="Layer_1" xmlns="http://www.w3.org/2000/svg" xmlns:xlink="http://www.w3.org/1999/xlink" x="0px" y="0px"
	 viewBox="0 0 1200 1200" style="enable-background:new 0 0 1200 1200;" xml:space="preserve">
<style type="text/css">
	.st0{clip-path:url(#SVGID_00000158727568702509815750000005648844222106336136_);}
	.st1{clip-path:url(#SVGID_00000062893558091741726020000013170035915385022650_);fill:#A8070B;}
</style>
<g id="Artwork_3_00000078737478160179553740000005885947990828929981_">
	<g>
		<defs>
			<rect id="SVGID_1_" x="203" y="213" width="826" height="776"/>
		</defs>
		<clipPath id="SVGID_00000107563591691114018930000009860450374684049317_">
			<use xlink:href="#SVGID_1_"  style="overflow:visible;"/>
		</clipPath>
		<g style="clip-path:url(#SVGID_00000107563591691114018930000009860450374684049317_);">
			<defs>
				<rect id="SVGID_00000078020361983701327770000000489072243631904935_" x="203" y="213" width="826" height="776"/>
			</defs>
			<clipPath id="SVGID_00000165913429480901837200000016452976860655546790_">
				<use xlink:href="#SVGID_00000078020361983701327770000000489072243631904935_"  style="overflow:visible;"/>
			</clipPath>
			<path style="clip-path:url(#SVGID_00000165913429480901837200000016452976860655546790_);fill:#A8070B;" d="M617.42,811.75
				c-111.76,0-202.67-88.21-202.67-196.64c0-108.44,90.91-196.64,202.67-196.64c111.79,0,202.71,88.21,202.71,196.64
				C820.13,723.54,729.22,811.75,617.42,811.75 M617.42,452.76c-92.26,0-167.31,72.81-167.31,162.34
				c0,89.52,75.05,162.33,167.31,162.33c92.3,0,167.34-72.81,167.34-162.33C784.76,525.57,709.73,452.76,617.42,452.76"/>
			<path style="clip-path:url(#SVGID_00000165913429480901837200000016452976860655546790_);fill:#A8070B;" d="M459.63,443.74
				c5.1,5.7,4.54,14.32-1.3,19.28c-5.91,5-14.8,4.39-19.87-1.27L333.66,345.6c-5.11-5.72-4.51-14.33,1.3-19.25
				c5.85-4.97,14.79-4.45,19.89,1.27L459.63,443.74z"/>
			<path style="clip-path:url(#SVGID_00000165913429480901837200000016452976860655546790_);fill:#A8070B;" d="M632.07,380.93
				c0.08,7.52-6.19,13.68-13.96,13.74c-7.78,0.05-14.12-5.98-14.17-13.58l-1.14-154.33c-0.05-7.59,6.22-13.71,13.95-13.76
				c7.81-0.03,14.12,5.98,14.2,13.59L632.07,380.93z"/>
			<path style="clip-path:url(#SVGID_00000165913429480901837200000016452976860655546790_);fill:#A8070B;" d="M376.79,577.58
				c7.79,0.62,13.48,7.23,12.9,14.71c-0.65,7.53-7.38,13.12-15.2,12.53l-158.55-12.53c-7.77-0.63-13.58-7.24-12.88-14.71
				c0.6-7.53,7.36-13.11,15.19-12.58L376.79,577.58z"/>
			<path style="clip-path:url(#SVGID_00000165913429480901837200000016452976860655546790_);fill:#A8070B;" d="M402.34,723.79
				c6.6-4.05,15.28-2.12,19.43,4.23c4.14,6.35,2.22,14.82-4.38,18.87L282.9,829.35c-6.61,4.06-15.31,2.15-19.41-4.23
				c-4.18-6.4-2.21-14.81,4.38-18.85L402.34,723.79z"/>
			<path style="clip-path:url(#SVGID_00000165913429480901837200000016452976860655546790_);fill:#A8070B;" d="M522.47,825.51
				c2.78-7.1,10.89-10.64,18.15-7.98c7.24,2.66,10.95,10.51,8.25,17.63L492.8,979.59c-2.8,7.07-10.88,10.63-18.09,7.96
				c-7.38-2.66-11.02-10.52-8.29-17.6L522.47,825.51z"/>
			<path style="clip-path:url(#SVGID_00000165913429480901837200000016452976860655546790_);fill:#A8070B;" d="M826.33,752.71
				c-6.93-3.52-9.56-11.75-5.92-18.43c3.58-6.67,12.11-9.27,19.01-5.72l140.8,71.8c6.92,3.56,9.55,11.83,5.89,18.42
				c-3.6,6.74-12.09,9.26-19.05,5.77L826.33,752.71z"/>
			<path style="clip-path:url(#SVGID_00000165913429480901837200000016452976860655546790_);fill:#A8070B;" d="M858.55,586.15
				c-7.72,0.88-14.73-4.49-15.62-11.93c-0.92-7.5,4.59-14.33,12.36-15.2l158-17.93c7.76-0.86,14.77,4.5,15.61,11.95
				c0.94,7.55-4.58,14.29-12.35,15.22L858.55,586.15z"/>
			<path style="clip-path:url(#SVGID_00000165913429480901837200000016452976860655546790_);fill:#A8070B;" d="M754.86,970.77
				c2.62,7.1-1.21,14.92-8.56,17.47c-7.36,2.44-15.37-1.23-17.94-8.36l-52.91-145.61c-2.58-7.09,1.28-14.92,8.59-17.4
				c7.34-2.53,15.38,1.18,17.97,8.34L754.86,970.77z"/>
			<path style="clip-path:url(#SVGID_00000165913429480901837200000016452976860655546790_);fill:#A8070B;" d="M780.9,447.54
				c-4.83,5.97-13.59,7.04-19.77,2.41c-6.13-4.66-7.2-13.22-2.43-19.16l97.96-121.69c4.78-5.95,13.63-7.04,19.75-2.37
				c6.12,4.63,7.2,13.23,2.4,19.21L780.9,447.54z"/>
		</g>
	</g>
</g>
</svg>
